<?xml version="1.0" encoding="UTF-8"?>
<!DOCTYPE svg PUBLIC "-//W3C//DTD SVG 1.1//EN" "http://www.w3.org/Graphics/SVG/1.1/DTD/svg11.dtd">
<svg xmlns="http://www.w3.org/2000/svg" version="1.1" width="500px" height="500px" style="shape-rendering:geometricPrecision; text-rendering:geometricPrecision; image-rendering:optimizeQuality; fill-rule:evenodd; clip-rule:evenodd" xmlns:xlink="http://www.w3.org/1999/xlink">
<g><path style="opacity:0.767" fill="#6cb6b9" d="M 317.5,116.5 C 317.5,116.833 317.5,117.167 317.5,117.5C 281.833,117.5 246.167,117.5 210.5,117.5C 210.5,117.167 210.5,116.833 210.5,116.5C 246.173,115.573 281.839,115.573 317.5,116.5 Z"/></g>
<g><path style="opacity:1" fill="#19918d" d="M 210.5,117.5 C 246.167,117.5 281.833,117.5 317.5,117.5C 317.405,119.786 316.738,121.786 315.5,123.5C 315.714,121.856 315.38,120.356 314.5,119C 281.5,118.333 248.5,118.333 215.5,119C 214.016,119.662 212.683,120.496 211.5,121.5C 211.567,120.041 211.234,118.708 210.5,117.5 Z"/></g>
<g><path style="opacity:1" fill="#0ca597" d="M 315.5,123.5 C 312.577,132.083 306.577,137.083 297.5,138.5C 297.577,137.25 298.244,136.417 299.5,136C 299,135.833 298.5,135.667 298,135.5C 296.32,136.547 294.486,137.213 292.5,137.5C 284.537,135.331 276.537,134.165 268.5,134C 268.167,133.667 267.833,133.333 267.5,133C 272.956,132.677 278.289,132.51 283.5,132.5C 282.975,131.808 282.308,131.308 281.5,131C 275.457,130.493 269.457,129.66 263.5,128.5C 257.697,129.409 251.863,130.075 246,130.5C 240.481,129.773 234.981,128.94 229.5,128C 227.464,127.546 225.63,126.713 224,125.5C 222.566,125.93 221.399,126.764 220.5,128C 221.706,131.112 221.706,134.278 220.5,137.5C 221.971,142.301 223.304,147.134 224.5,152C 222.787,159.549 222.454,167.215 223.5,175C 223.144,185.521 222.478,196.021 221.5,206.5C 221.912,214.407 222.912,222.407 224.5,230.5C 223.427,234.084 222.76,237.75 222.5,241.5C 224.391,257.121 224.891,272.788 224,288.5C 222.989,292.877 221.822,297.21 220.5,301.5C 220.453,303 221.119,304 222.5,304.5C 223.474,306.743 223.808,309.076 223.5,311.5C 222.041,311.433 220.708,311.766 219.5,312.5C 219.768,310.901 219.434,309.568 218.5,308.5C 218.5,304.5 218.5,300.5 218.5,296.5C 219.831,289.03 220.498,281.196 220.5,273C 220.317,239.164 220.317,205.33 220.5,171.5C 220.495,165.789 219.828,160.456 218.5,155.5C 217.213,144.069 214.88,132.736 211.5,121.5C 212.683,120.496 214.016,119.662 215.5,119C 248.5,118.333 281.5,118.333 314.5,119C 315.38,120.356 315.714,121.856 315.5,123.5 Z"/></g>
<g><path style="opacity:1" fill="#09575c" d="M 317.5,116.5 C 325.903,116.13 334.236,116.63 342.5,118C 355.566,126.198 358.066,137.031 350,150.5C 344.628,157.021 337.794,161.354 329.5,163.5C 329.539,162.417 329.873,161.417 330.5,160.5C 329.263,159.719 328.263,158.719 327.5,157.5C 331.756,157.064 336.089,157.064 340.5,157.5C 340.687,153.087 341.354,148.754 342.5,144.5C 339.449,144.364 336.449,144.698 333.5,145.5C 330.358,143.881 327.025,143.215 323.5,143.5C 323.5,142.5 323.5,141.5 323.5,140.5C 319.094,138.352 315.427,139.186 312.5,143C 311.207,143.49 309.873,143.657 308.5,143.5C 308.67,144.822 308.337,145.989 307.5,147C 303.928,148.405 300.261,148.738 296.5,148C 295.62,146.644 295.286,145.144 295.5,143.5C 293.167,143.5 290.833,143.5 288.5,143.5C 288.5,144.833 288.5,146.167 288.5,147.5C 283.74,147.487 279.074,146.82 274.5,145.5C 275.167,144.833 275.833,144.167 276.5,143.5C 274.589,142.523 272.589,141.857 270.5,141.5C 279.341,140.33 288.341,139.33 297.5,138.5C 306.577,137.083 312.577,132.083 315.5,123.5C 316.738,121.786 317.405,119.786 317.5,117.5C 317.5,117.167 317.5,116.833 317.5,116.5 Z"/></g>
<g><path style="opacity:1" fill="#57faee" d="M 210.5,116.5 C 210.5,116.833 210.5,117.167 210.5,117.5C 211.234,118.708 211.567,120.041 211.5,121.5C 214.88,132.736 217.213,144.069 218.5,155.5C 218.5,201.833 218.5,248.167 218.5,294.5C 217.803,255.984 217.137,217.317 216.5,178.5C 215.5,178.5 214.5,178.5 213.5,178.5C 214.054,167.951 213.221,157.617 211,147.5C 208.25,148.291 205.417,148.291 202.5,147.5C 202.5,148.833 202.5,150.167 202.5,151.5C 200.167,151.5 197.833,151.5 195.5,151.5C 193.616,151.712 192.283,152.712 191.5,154.5C 189.216,149.386 185.716,148.386 181,151.5C 179.893,151.415 178.893,151.081 178,150.5C 175.94,151.761 174.44,153.428 173.5,155.5C 173.167,155.5 172.833,155.5 172.5,155.5C 172.322,154.305 171.989,153.138 171.5,152C 173.024,150.806 174.19,149.306 175,147.5C 175.499,142.511 175.666,137.511 175.5,132.5C 172.24,132.768 168.906,132.101 165.5,130.5C 167.149,129.852 168.482,128.852 169.5,127.5C 168.675,126.614 167.675,126.281 166.5,126.5C 179.608,117.091 194.274,113.758 210.5,116.5 Z"/></g>
<g><path style="opacity:1" fill="#0aaa9a" d="M 297.5,138.5 C 288.341,139.33 279.341,140.33 270.5,141.5C 266.154,141.334 261.821,141.501 257.5,142C 255.942,142.21 254.609,142.71 253.5,143.5C 249.469,145.014 246.469,147.681 244.5,151.5C 243.5,153.5 242.5,155.5 241.5,157.5C 239.564,161.715 238.897,166.381 239.5,171.5C 238.883,171.611 238.383,171.944 238,172.5C 237.033,161.504 236.2,161.171 235.5,171.5C 234.167,171.5 232.833,171.5 231.5,171.5C 231.858,174.898 231.192,178.065 229.5,181C 230.388,182.22 231.055,183.553 231.5,185C 230.229,198.466 229.395,211.966 229,225.5C 227.792,227.479 226.959,229.645 226.5,232C 226.868,241.263 227.868,250.429 229.5,259.5C 228.911,262.022 228.245,264.522 227.5,267C 230.684,276.68 231.018,286.514 228.5,296.5C 229.5,296.5 230.5,296.5 231.5,296.5C 231.5,297.833 231.5,299.167 231.5,300.5C 231.832,305.992 231.832,311.325 231.5,316.5C 230.167,316.5 228.833,316.5 227.5,316.5C 227.5,317.5 227.5,318.5 227.5,319.5C 226.5,319.5 225.5,319.5 224.5,319.5C 225.64,323.771 226.14,328.105 226,332.5C 225.14,329.916 223.973,327.583 222.5,325.5C 221.033,321.298 220.033,316.965 219.5,312.5C 220.708,311.766 222.041,311.433 223.5,311.5C 223.808,309.076 223.474,306.743 222.5,304.5C 221.119,304 220.453,303 220.5,301.5C 221.822,297.21 222.989,292.877 224,288.5C 224.891,272.788 224.391,257.121 222.5,241.5C 222.76,237.75 223.427,234.084 224.5,230.5C 222.912,222.407 221.912,214.407 221.5,206.5C 222.478,196.021 223.144,185.521 223.5,175C 222.454,167.215 222.787,159.549 224.5,152C 223.304,147.134 221.971,142.301 220.5,137.5C 221.706,134.278 221.706,131.112 220.5,128C 221.399,126.764 222.566,125.93 224,125.5C 225.63,126.713 227.464,127.546 229.5,128C 234.981,128.94 240.481,129.773 246,130.5C 251.863,130.075 257.697,129.409 263.5,128.5C 269.457,129.66 275.457,130.493 281.5,131C 282.308,131.308 282.975,131.808 283.5,132.5C 278.289,132.51 272.956,132.677 267.5,133C 267.833,133.333 268.167,133.667 268.5,134C 276.537,134.165 284.537,135.331 292.5,137.5C 294.486,137.213 296.32,136.547 298,135.5C 298.5,135.667 299,135.833 299.5,136C 298.244,136.417 297.577,137.25 297.5,138.5 Z"/></g>
<g><path style="opacity:1" fill="#46fbe4" d="M 166.5,126.5 C 167.675,126.281 168.675,126.614 169.5,127.5C 168.482,128.852 167.149,129.852 165.5,130.5C 168.906,132.101 172.24,132.768 175.5,132.5C 175.666,137.511 175.499,142.511 175,147.5C 174.19,149.306 173.024,150.806 171.5,152C 171.989,153.138 172.322,154.305 172.5,155.5C 171.167,156.167 169.833,156.833 168.5,157.5C 167.208,150.575 165.042,143.908 162,137.5C 161.105,134.534 161.605,131.867 163.5,129.5C 163.376,128.893 163.043,128.56 162.5,128.5C 163.514,127.326 164.847,126.66 166.5,126.5 Z"/></g>
<g><path style="opacity:1" fill="#10545b" d="M 329.5,163.5 C 319.342,166.265 309.009,168.265 298.5,169.5C 297.391,169.443 296.391,169.11 295.5,168.5C 296.234,167.292 296.567,165.959 296.5,164.5C 285.704,162.459 275.038,159.792 264.5,156.5C 264.167,158.5 263.833,160.5 263.5,162.5C 266.761,162.1 267.428,163.267 265.5,166C 265.989,171.79 267.489,177.29 270,182.5C 270.708,181.619 271.542,180.953 272.5,180.5C 272.5,180.833 272.5,181.167 272.5,181.5C 272.832,218.004 272.498,254.337 271.5,290.5C 271.5,287.167 271.5,283.833 271.5,280.5C 271.857,252.147 271.357,223.814 270,195.5C 269.667,192.833 269.333,190.167 269,187.5C 267.562,218.044 266.395,218.044 265.5,187.5C 264.682,190.107 264.182,192.774 264,195.5C 261.723,192.301 260.89,188.635 261.5,184.5C 260.325,184.719 259.325,184.386 258.5,183.5C 257.575,172.916 257.575,162.249 258.5,151.5C 260.747,150.626 263.08,150.292 265.5,150.5C 265.5,149.167 265.5,147.833 265.5,146.5C 267.854,146.162 270.187,145.662 272.5,145C 268.984,144.501 265.484,144.667 262,145.5C 259.239,144.582 256.406,143.916 253.5,143.5C 254.609,142.71 255.942,142.21 257.5,142C 261.821,141.501 266.154,141.334 270.5,141.5C 272.589,141.857 274.589,142.523 276.5,143.5C 275.833,144.167 275.167,144.833 274.5,145.5C 279.074,146.82 283.74,147.487 288.5,147.5C 288.5,146.167 288.5,144.833 288.5,143.5C 290.833,143.5 293.167,143.5 295.5,143.5C 295.286,145.144 295.62,146.644 296.5,148C 300.261,148.738 303.928,148.405 307.5,147C 308.337,145.989 308.67,144.822 308.5,143.5C 309.873,143.657 311.207,143.49 312.5,143C 315.427,139.186 319.094,138.352 323.5,140.5C 323.5,141.5 323.5,142.5 323.5,143.5C 327.025,143.215 330.358,143.881 333.5,145.5C 336.449,144.698 339.449,144.364 342.5,144.5C 341.354,148.754 340.687,153.087 340.5,157.5C 336.089,157.064 331.756,157.064 327.5,157.5C 328.263,158.719 329.263,159.719 330.5,160.5C 329.873,161.417 329.539,162.417 329.5,163.5 Z"/></g>
<g><path style="opacity:1" fill="#36eacf" d="M 162.5,128.5 C 163.043,128.56 163.376,128.893 163.5,129.5C 161.605,131.867 161.105,134.534 162,137.5C 165.042,143.908 167.208,150.575 168.5,157.5C 166.418,157.528 164.584,156.861 163,155.5C 162.147,157.125 161.147,157.458 160,156.5C 157.647,152.752 156.147,148.586 155.5,144C 153.152,139.254 150.485,138.754 147.5,142.5C 147.167,142.5 146.833,142.5 146.5,142.5C 147.794,140.093 149.461,137.926 151.5,136C 154.792,132.862 158.458,130.362 162.5,128.5 Z"/></g>
<g><path style="opacity:1" fill="#58fef6" d="M 213.5,178.5 C 213.721,187.856 213.388,197.189 212.5,206.5C 214.397,213.549 214.731,220.715 213.5,228C 213.452,233.917 214.118,239.751 215.5,245.5C 214.511,248.818 213.511,252.152 212.5,255.5C 213.414,261.459 213.747,267.459 213.5,273.5C 212.167,273.5 210.833,273.5 209.5,273.5C 209.334,278.511 209.501,283.511 210,288.5C 210.497,285.854 210.664,283.187 210.5,280.5C 211.5,280.5 212.5,280.5 213.5,280.5C 213.928,284.275 213.261,287.775 211.5,291C 212.233,292.766 212.567,294.599 212.5,296.5C 211.167,296.5 209.833,296.5 208.5,296.5C 208.5,298.833 208.5,301.167 208.5,303.5C 210.167,303.5 211.833,303.5 213.5,303.5C 213.459,299.757 214.126,299.59 215.5,303C 214.875,305.8 214.208,308.634 213.5,311.5C 212.167,311.833 210.833,312.167 209.5,312.5C 208.022,323.107 206.856,323.107 206,312.5C 205.501,316.152 205.335,319.818 205.5,323.5C 204.411,316.665 204.411,309.665 205.5,302.5C 204.998,296.482 204.331,290.482 203.5,284.5C 204.937,264.862 205.603,245.196 205.5,225.5C 204.5,225.5 203.5,225.5 202.5,225.5C 202.5,217.833 202.5,210.167 202.5,202.5C 203.5,202.5 204.5,202.5 205.5,202.5C 205.5,189.5 205.5,176.5 205.5,163.5C 204.5,163.5 203.5,163.5 202.5,163.5C 202.5,160.833 202.5,158.167 202.5,155.5C 200.167,155.5 197.833,155.5 195.5,155.5C 195.5,154.167 195.5,152.833 195.5,151.5C 197.833,151.5 200.167,151.5 202.5,151.5C 202.5,150.167 202.5,148.833 202.5,147.5C 205.417,148.291 208.25,148.291 211,147.5C 213.221,157.617 214.054,167.951 213.5,178.5 Z"/></g>
<g><path style="opacity:1" fill="#12c6ac" d="M 146.5,142.5 C 146.833,142.5 147.167,142.5 147.5,142.5C 147.421,143.93 147.754,145.264 148.5,146.5C 147.617,147.548 146.95,148.715 146.5,150C 147.887,155.493 150.053,160.66 153,165.5C 153.308,164.692 153.808,164.025 154.5,163.5C 155.612,165.419 156.946,167.086 158.5,168.5C 156.615,170.053 155.615,172.053 155.5,174.5C 154.833,174.5 154.5,174.833 154.5,175.5C 153.057,174.665 152.057,173.332 151.5,171.5C 150.684,173.287 149.684,174.954 148.5,176.5C 147.355,175.224 147.355,173.891 148.5,172.5C 147.349,171.269 146.183,171.269 145,172.5C 143.63,168.867 141.796,165.533 139.5,162.5C 141.028,156.281 140.195,155.947 137,161.5C 136.517,160.552 136.351,159.552 136.5,158.5C 138.835,152.486 142.169,147.152 146.5,142.5 Z"/></g>
<g><path style="opacity:1" fill="#1cdabf" d="M 168.5,157.5 C 164.485,160.516 161.152,164.183 158.5,168.5C 156.946,167.086 155.612,165.419 154.5,163.5C 153.808,164.025 153.308,164.692 153,165.5C 150.053,160.66 147.887,155.493 146.5,150C 146.95,148.715 147.617,147.548 148.5,146.5C 147.754,145.264 147.421,143.93 147.5,142.5C 150.485,138.754 153.152,139.254 155.5,144C 156.147,148.586 157.647,152.752 160,156.5C 161.147,157.458 162.147,157.125 163,155.5C 164.584,156.861 166.418,157.528 168.5,157.5 Z"/></g>
<g><path style="opacity:1" fill="#03384b" d="M 190.5,158.5 C 191.801,159.882 192.634,161.548 193,163.5C 193.825,174.341 193.659,185.008 192.5,195.5C 192.923,185.42 192.423,175.42 191,165.5C 189.983,168.028 188.816,168.028 187.5,165.5C 186.167,167.167 184.833,168.833 183.5,170.5C 178.935,173.412 173.935,175.245 168.5,176C 166.998,178.547 164.998,179.38 162.5,178.5C 160.227,179.279 158.394,180.612 157,182.5C 155.968,180.855 154.801,180.522 153.5,181.5C 152.355,182.776 152.355,184.109 153.5,185.5C 150.934,188.584 148.934,191.918 147.5,195.5C 147.366,193.708 147.699,192.042 148.5,190.5C 149.333,184.994 151.333,179.994 154.5,175.5C 154.5,174.833 154.833,174.5 155.5,174.5C 156.117,174.611 156.617,174.944 157,175.5C 157.739,173.779 158.573,172.113 159.5,170.5C 161.768,171.544 164.101,171.711 166.5,171C 170.227,168.672 173.893,166.339 177.5,164C 181.232,164.188 184.066,162.688 186,159.5C 186.333,159.833 186.667,160.167 187,160.5C 187.816,159.177 188.983,158.511 190.5,158.5 Z"/></g>
<g><path style="opacity:1" fill="#044854" d="M 190.5,158.5 C 188.983,158.511 187.816,159.177 187,160.5C 186.667,160.167 186.333,159.833 186,159.5C 184.066,162.688 181.232,164.188 177.5,164C 173.893,166.339 170.227,168.672 166.5,171C 164.101,171.711 161.768,171.544 159.5,170.5C 158.573,172.113 157.739,173.779 157,175.5C 156.617,174.944 156.117,174.611 155.5,174.5C 155.615,172.053 156.615,170.053 158.5,168.5C 161.152,164.183 164.485,160.516 168.5,157.5C 169.833,156.833 171.167,156.167 172.5,155.5C 172.833,155.5 173.167,155.5 173.5,155.5C 179.928,152.214 185.595,153.214 190.5,158.5 Z"/></g>
<g><path style="opacity:1" fill="#60fdf4" d="M 195.5,155.5 C 197.833,155.5 200.167,155.5 202.5,155.5C 202.5,158.167 202.5,160.833 202.5,163.5C 203.5,163.5 204.5,163.5 205.5,163.5C 205.5,176.5 205.5,189.5 205.5,202.5C 204.5,202.5 203.5,202.5 202.5,202.5C 202.5,210.167 202.5,217.833 202.5,225.5C 203.5,225.5 204.5,225.5 205.5,225.5C 205.603,245.196 204.937,264.862 203.5,284.5C 204.331,290.482 204.998,296.482 205.5,302.5C 204.411,309.665 204.411,316.665 205.5,323.5C 206.592,327.774 208.259,331.44 210.5,334.5C 209.833,335.167 209.167,335.833 208.5,336.5C 208.97,338.774 209.97,340.774 211.5,342.5C 211.291,343.086 210.957,343.586 210.5,344C 212.167,344.333 213.833,344.667 215.5,345C 215.831,348.656 217.664,351.156 221,352.5C 225.259,350.945 226.925,347.945 226,343.5C 224.023,340.688 221.856,338.022 219.5,335.5C 221.742,332.515 221.909,329.515 220,326.5C 219.169,320.523 218.669,314.523 218.5,308.5C 219.434,309.568 219.768,310.901 219.5,312.5C 220.033,316.965 221.033,321.298 222.5,325.5C 225.536,344.092 234.536,358.925 249.5,370C 254.563,372.861 259.563,375.694 264.5,378.5C 239.313,375.324 219.479,363.324 205,342.5C 201.4,337.301 198.9,331.635 197.5,325.5C 197.715,323.226 198.382,321.059 199.5,319C 199.46,290.683 199.46,262.35 199.5,234C 199.245,231.844 198.578,229.844 197.5,228C 199.802,226.687 200.802,224.687 200.5,222C 199.216,213.491 199.216,204.991 200.5,196.5C 199.144,185.856 198.31,175.189 198,164.5C 197.604,161.343 196.771,158.343 195.5,155.5 Z"/></g>
<g><path style="opacity:1" fill="#166b68" d="M 295.5,168.5 C 296.391,169.11 297.391,169.443 298.5,169.5C 290.299,170.051 282.632,172.551 275.5,177C 274.601,178.652 273.601,180.152 272.5,181.5C 272.5,181.167 272.5,180.833 272.5,180.5C 272.215,178.712 272.548,177.045 273.5,175.5C 274.799,174.91 275.632,173.91 276,172.5C 276.498,169.518 276.665,166.518 276.5,163.5C 282.784,164.547 289.118,165.38 295.5,166C 291.544,167.114 291.544,167.947 295.5,168.5 Z"/></g>
<g><path style="opacity:1" fill="#025c60" d="M 295.5,168.5 C 291.544,167.947 291.544,167.114 295.5,166C 289.118,165.38 282.784,164.547 276.5,163.5C 276.665,166.518 276.498,169.518 276,172.5C 275.632,173.91 274.799,174.91 273.5,175.5C 272.548,177.045 272.215,178.712 272.5,180.5C 271.542,180.953 270.708,181.619 270,182.5C 267.489,177.29 265.989,171.79 265.5,166C 267.428,163.267 266.761,162.1 263.5,162.5C 263.833,160.5 264.167,158.5 264.5,156.5C 275.038,159.792 285.704,162.459 296.5,164.5C 296.567,165.959 296.234,167.292 295.5,168.5 Z"/></g>
<g><path style="opacity:1" fill="#032b42" d="M 192.5,195.5 C 191.833,195.833 191.167,196.167 190.5,196.5C 190.5,195.833 190.167,195.5 189.5,195.5C 189.351,194.448 189.517,193.448 190,192.5C 190.333,192.833 190.667,193.167 191,193.5C 191.667,188.833 191.667,184.167 191,179.5C 191.116,185.968 189.949,186.634 187.5,181.5C 189.703,179.064 189.703,176.397 187.5,173.5C 181.594,180.843 173.594,185.843 163.5,188.5C 162.821,190.588 162.488,192.588 162.5,194.5C 160.405,192.411 158.572,192.411 157,194.5C 153.203,200.239 152.703,206.573 155.5,213.5C 155,214.5 154.5,215.5 154,216.5C 153.028,214.695 151.861,213.028 150.5,211.5C 149.932,214.412 149.932,217.412 150.5,220.5C 149.113,218.123 148.279,215.457 148,212.5C 147.501,206.843 147.334,201.176 147.5,195.5C 148.934,191.918 150.934,188.584 153.5,185.5C 152.355,184.109 152.355,182.776 153.5,181.5C 154.801,180.522 155.968,180.855 157,182.5C 158.394,180.612 160.227,179.279 162.5,178.5C 164.998,179.38 166.998,178.547 168.5,176C 173.935,175.245 178.935,173.412 183.5,170.5C 184.833,168.833 186.167,167.167 187.5,165.5C 188.816,168.028 189.983,168.028 191,165.5C 192.423,175.42 192.923,185.42 192.5,195.5 Z"/></g>
<g><path style="opacity:1" fill="#07ae9f" d="M 154.5,175.5 C 151.333,179.994 149.333,184.994 148.5,190.5C 147.178,190.33 146.011,190.663 145,191.5C 144.529,193.246 143.862,194.913 143,196.5C 141.63,192.755 139.963,189.088 138,185.5C 137.248,180.668 135.415,176.335 132.5,172.5C 133.833,171.833 135.167,171.167 136.5,170.5C 135.389,169.389 134.722,168.055 134.5,166.5C 135.156,164.547 135.489,162.547 135.5,160.5C 135.328,159.508 135.662,158.842 136.5,158.5C 136.351,159.552 136.517,160.552 137,161.5C 140.195,155.947 141.028,156.281 139.5,162.5C 141.796,165.533 143.63,168.867 145,172.5C 146.183,171.269 147.349,171.269 148.5,172.5C 147.355,173.891 147.355,175.224 148.5,176.5C 149.684,174.954 150.684,173.287 151.5,171.5C 152.057,173.332 153.057,174.665 154.5,175.5 Z"/></g>
<g><path style="opacity:1" fill="#52fef3" d="M 213.5,178.5 C 214.5,178.5 215.5,178.5 216.5,178.5C 217.137,217.317 217.803,255.984 218.5,294.5C 218.5,295.167 218.5,295.833 218.5,296.5C 218.5,300.5 218.5,304.5 218.5,308.5C 218.669,314.523 219.169,320.523 220,326.5C 221.909,329.515 221.742,332.515 219.5,335.5C 221.856,338.022 224.023,340.688 226,343.5C 226.925,347.945 225.259,350.945 221,352.5C 217.664,351.156 215.831,348.656 215.5,345C 213.833,344.667 212.167,344.333 210.5,344C 210.957,343.586 211.291,343.086 211.5,342.5C 209.97,340.774 208.97,338.774 208.5,336.5C 209.167,335.833 209.833,335.167 210.5,334.5C 208.259,331.44 206.592,327.774 205.5,323.5C 205.335,319.818 205.501,316.152 206,312.5C 206.856,323.107 208.022,323.107 209.5,312.5C 210.833,312.167 212.167,311.833 213.5,311.5C 214.208,308.634 214.875,305.8 215.5,303C 214.126,299.59 213.459,299.757 213.5,303.5C 211.833,303.5 210.167,303.5 208.5,303.5C 208.5,301.167 208.5,298.833 208.5,296.5C 209.833,296.5 211.167,296.5 212.5,296.5C 212.567,294.599 212.233,292.766 211.5,291C 213.261,287.775 213.928,284.275 213.5,280.5C 212.5,280.5 211.5,280.5 210.5,280.5C 210.664,283.187 210.497,285.854 210,288.5C 209.501,283.511 209.334,278.511 209.5,273.5C 210.833,273.5 212.167,273.5 213.5,273.5C 213.747,267.459 213.414,261.459 212.5,255.5C 213.511,252.152 214.511,248.818 215.5,245.5C 214.118,239.751 213.452,233.917 213.5,228C 214.731,220.715 214.397,213.549 212.5,206.5C 213.388,197.189 213.721,187.856 213.5,178.5 Z"/></g>
<g><path style="opacity:1" fill="#033446" d="M 248.5,148.5 C 250.382,169.758 252.549,190.758 255,211.5C 256.997,213.485 257.664,215.819 257,218.5C 256.187,213.226 255.687,213.226 255.5,218.5C 255.81,223.519 256.81,228.352 258.5,233C 258.043,233.414 257.709,233.914 257.5,234.5C 257.812,237.624 258.979,240.291 261,242.5C 262.082,250.156 263.082,257.822 264,265.5C 264.333,257.5 264.667,249.5 265,241.5C 264.559,258.043 266.059,274.376 269.5,290.5C 268.57,292.105 268.57,293.605 269.5,295C 266.709,297.984 267.042,300.484 270.5,302.5C 268.738,302.643 267.071,302.309 265.5,301.5C 264.67,295.862 264.17,290.196 264,284.5C 260.424,271.708 257.924,258.708 256.5,245.5C 256.251,242.823 255.251,240.49 253.5,238.5C 253.931,237.707 254.265,236.873 254.5,236C 252.966,228.919 251.633,221.752 250.5,214.5C 250.792,211.995 251.126,209.495 251.5,207C 250.118,203.362 249.284,199.528 249,195.5C 248.667,184.833 248.333,174.167 248,163.5C 247.103,160.708 245.937,158.041 244.5,155.5C 243.935,157.544 242.935,159.21 241.5,160.5C 241.5,159.5 241.5,158.5 241.5,157.5C 242.5,155.5 243.5,153.5 244.5,151.5C 246.43,151.229 247.764,150.229 248.5,148.5 Z"/></g>
<g><path style="opacity:1" fill="#011b3a" d="M 189.5,195.5 C 186.735,195.798 184.235,196.798 182,198.5C 178.084,205.659 174.084,212.659 170,219.5C 169.51,220.793 169.343,222.127 169.5,223.5C 167.983,223.511 166.816,224.177 166,225.5C 164.298,222.298 161.798,219.965 158.5,218.5C 159.286,213.219 159.786,207.885 160,202.5C 162.31,200.863 163.81,198.696 164.5,196C 166.74,195.023 169.073,194.523 171.5,194.5C 171.215,192.712 171.548,191.045 172.5,189.5C 177.542,186.762 182.542,184.096 187.5,181.5C 189.949,186.634 191.116,185.968 191,179.5C 191.667,184.167 191.667,188.833 191,193.5C 190.667,193.167 190.333,192.833 190,192.5C 189.517,193.448 189.351,194.448 189.5,195.5 Z"/></g>
<g><path style="opacity:1" fill="#02223f" d="M 187.5,181.5 C 182.542,184.096 177.542,186.762 172.5,189.5C 171.548,191.045 171.215,192.712 171.5,194.5C 169.073,194.523 166.74,195.023 164.5,196C 163.81,198.696 162.31,200.863 160,202.5C 159.786,207.885 159.286,213.219 158.5,218.5C 161.798,219.965 164.298,222.298 166,225.5C 166.816,224.177 167.983,223.511 169.5,223.5C 169.489,225.017 168.823,226.184 167.5,227C 164.321,228.461 160.988,229.295 157.5,229.5C 154.027,227.363 151.694,224.363 150.5,220.5C 149.932,217.412 149.932,214.412 150.5,211.5C 151.861,213.028 153.028,214.695 154,216.5C 154.5,215.5 155,214.5 155.5,213.5C 152.703,206.573 153.203,200.239 157,194.5C 158.572,192.411 160.405,192.411 162.5,194.5C 162.488,192.588 162.821,190.588 163.5,188.5C 173.594,185.843 181.594,180.843 187.5,173.5C 189.703,176.397 189.703,179.064 187.5,181.5 Z"/></g>
<g><path style="opacity:1" fill="#0b9f97" d="M 135.5,160.5 C 135.489,162.547 135.156,164.547 134.5,166.5C 134.722,168.055 135.389,169.389 136.5,170.5C 135.167,171.167 133.833,171.833 132.5,172.5C 135.415,176.335 137.248,180.668 138,185.5C 139.963,189.088 141.63,192.755 143,196.5C 143.862,194.913 144.529,193.246 145,191.5C 146.011,190.663 147.178,190.33 148.5,190.5C 147.699,192.042 147.366,193.708 147.5,195.5C 146.821,201.714 145.988,208.047 145,214.5C 143.956,213.377 143.29,212.044 143,210.5C 142.497,205.81 141.83,201.143 141,196.5C 140.667,197.5 140.333,198.5 140,199.5C 136.229,198.776 134.563,196.443 135,192.5C 134.824,195.882 134.324,199.215 133.5,202.5C 133.167,202 132.833,201.5 132.5,201C 131.743,193.334 130.743,185.834 129.5,178.5C 130.529,172.079 132.529,166.079 135.5,160.5 Z"/></g>
<g><path style="opacity:1" fill="#07a699" d="M 239.5,171.5 C 239.745,182.056 239.079,192.556 237.5,203C 239.322,216.108 239.489,229.274 238,242.5C 237.739,245.663 236.906,248.663 235.5,251.5C 238.104,256.717 239.437,262.05 239.5,267.5C 239.221,276.532 239.221,285.532 239.5,294.5C 238.582,300.572 237.082,306.572 235,312.5C 234.13,311.892 233.63,311.059 233.5,310C 235.359,303.27 236.192,296.437 236,289.5C 235.586,289.043 235.086,288.709 234.5,288.5C 234.118,292.916 233.118,296.916 231.5,300.5C 231.5,299.167 231.5,297.833 231.5,296.5C 230.5,296.5 229.5,296.5 228.5,296.5C 231.018,286.514 230.684,276.68 227.5,267C 228.245,264.522 228.911,262.022 229.5,259.5C 227.868,250.429 226.868,241.263 226.5,232C 226.959,229.645 227.792,227.479 229,225.5C 229.395,211.966 230.229,198.466 231.5,185C 231.055,183.553 230.388,182.22 229.5,181C 231.192,178.065 231.858,174.898 231.5,171.5C 232.833,171.5 234.167,171.5 235.5,171.5C 236.2,161.171 237.033,161.504 238,172.5C 238.383,171.944 238.883,171.611 239.5,171.5 Z"/></g>
<g><path style="opacity:1" fill="#032e42" d="M 270.5,302.5 C 272.942,302.119 273.609,302.786 272.5,304.5C 278.68,305.603 279.68,308.269 275.5,312.5C 277.044,313.747 278.544,315.08 280,316.5C 285.075,313.704 290.575,312.371 296.5,312.5C 295.856,315.81 293.856,317.81 290.5,318.5C 289.833,318.833 289.167,319.167 288.5,319.5C 283.088,321.228 278.254,320.228 274,316.5C 273.282,317.451 272.449,317.617 271.5,317C 268.748,314.212 266.082,311.378 263.5,308.5C 263.709,307.914 264.043,307.414 264.5,307C 262.622,305.457 261.122,303.624 260,301.5C 259.723,293.464 259.057,285.464 258,277.5C 257.751,278.624 257.251,279.624 256.5,280.5C 255.337,273.208 254.504,265.874 254,258.5C 253.586,258.043 253.086,257.709 252.5,257.5C 251.776,252.142 250.943,246.809 250,241.5C 249.333,246.833 248.667,246.833 248,241.5C 247.667,236.5 247.333,231.5 247,226.5C 245.644,225.62 244.144,225.286 242.5,225.5C 242.5,238.833 242.5,252.167 242.5,265.5C 242.806,268.385 242.473,271.052 241.5,273.5C 241.5,235.833 241.5,198.167 241.5,160.5C 242.935,159.21 243.935,157.544 244.5,155.5C 245.937,158.041 247.103,160.708 248,163.5C 248.333,174.167 248.667,184.833 249,195.5C 249.284,199.528 250.118,203.362 251.5,207C 251.126,209.495 250.792,211.995 250.5,214.5C 251.633,221.752 252.966,228.919 254.5,236C 254.265,236.873 253.931,237.707 253.5,238.5C 255.251,240.49 256.251,242.823 256.5,245.5C 257.924,258.708 260.424,271.708 264,284.5C 264.17,290.196 264.67,295.862 265.5,301.5C 267.071,302.309 268.738,302.643 270.5,302.5 Z"/></g>
<g><path style="opacity:1" fill="#1c9591" d="M 129.5,178.5 C 130.743,185.834 131.743,193.334 132.5,201C 132.833,201.5 133.167,202 133.5,202.5C 134.324,199.215 134.824,195.882 135,192.5C 134.563,196.443 136.229,198.776 140,199.5C 140.333,198.5 140.667,197.5 141,196.5C 141.83,201.143 142.497,205.81 143,210.5C 143.29,212.044 143.956,213.377 145,214.5C 145.988,208.047 146.821,201.714 147.5,195.5C 147.334,201.176 147.501,206.843 148,212.5C 148.279,215.457 149.113,218.123 150.5,220.5C 151.694,224.363 154.027,227.363 157.5,229.5C 158.167,230.167 158.833,230.833 159.5,231.5C 155.413,233.971 151.08,234.137 146.5,232C 136.225,224.972 130.392,215.139 129,202.5C 128.23,194.452 128.397,186.452 129.5,178.5 Z"/></g>
<g><path style="opacity:1" fill="#72fdf6" d="M 195.5,151.5 C 195.5,152.833 195.5,154.167 195.5,155.5C 196.771,158.343 197.604,161.343 198,164.5C 198.31,175.189 199.144,185.856 200.5,196.5C 199.216,204.991 199.216,213.491 200.5,222C 200.802,224.687 199.802,226.687 197.5,228C 198.578,229.844 199.245,231.844 199.5,234C 199.46,262.35 199.46,290.683 199.5,319C 198.382,321.059 197.715,323.226 197.5,325.5C 195.193,319.147 193.693,312.48 193,305.5C 192.5,268.835 192.333,232.168 192.5,195.5C 193.659,185.008 193.825,174.341 193,163.5C 192.634,161.548 191.801,159.882 190.5,158.5C 185.595,153.214 179.928,152.214 173.5,155.5C 174.44,153.428 175.94,151.761 178,150.5C 178.893,151.081 179.893,151.415 181,151.5C 185.716,148.386 189.216,149.386 191.5,154.5C 192.283,152.712 193.616,151.712 195.5,151.5 Z"/></g>
<g><path style="opacity:1" fill="#1b2d39" d="M 189.5,195.5 C 190.167,195.5 190.5,195.833 190.5,196.5C 185.963,197.847 182.463,200.514 180,204.5C 177.137,211.422 174.47,218.422 172,225.5C 168.969,229.804 164.802,231.804 159.5,231.5C 158.833,230.833 158.167,230.167 157.5,229.5C 160.988,229.295 164.321,228.461 167.5,227C 168.823,226.184 169.489,225.017 169.5,223.5C 169.343,222.127 169.51,220.793 170,219.5C 174.084,212.659 178.084,205.659 182,198.5C 184.235,196.798 186.735,195.798 189.5,195.5 Z"/></g>
<g><path style="opacity:1" fill="#0fa18c" d="M 218.5,155.5 C 219.828,160.456 220.495,165.789 220.5,171.5C 220.317,205.33 220.317,239.164 220.5,273C 220.498,281.196 219.831,289.03 218.5,296.5C 218.5,295.833 218.5,295.167 218.5,294.5C 218.5,248.167 218.5,201.833 218.5,155.5 Z"/></g>
<g><path style="opacity:1" fill="#04454f" d="M 253.5,143.5 C 256.406,143.916 259.239,144.582 262,145.5C 265.484,144.667 268.984,144.501 272.5,145C 270.187,145.662 267.854,146.162 265.5,146.5C 265.5,147.833 265.5,149.167 265.5,150.5C 263.08,150.292 260.747,150.626 258.5,151.5C 257.575,162.249 257.575,172.916 258.5,183.5C 259.325,184.386 260.325,184.719 261.5,184.5C 260.89,188.635 261.723,192.301 264,195.5C 264.182,192.774 264.682,190.107 265.5,187.5C 266.395,218.044 267.562,218.044 269,187.5C 269.333,190.167 269.667,192.833 270,195.5C 271.357,223.814 271.857,252.147 271.5,280.5C 270.883,262.642 270.05,244.642 269,226.5C 268.728,239.19 268.061,251.856 267,264.5C 266.833,248.49 266.333,232.49 265.5,216.5C 262.539,215.817 262.205,214.984 264.5,214C 263.667,213.167 262.833,212.333 262,211.5C 261.999,208.313 261.166,205.48 259.5,203C 259.957,202.586 260.291,202.086 260.5,201.5C 258.831,192.259 257.165,182.926 255.5,173.5C 254.634,165.201 254.301,157.034 254.5,149C 255.448,148.517 256.448,148.351 257.5,148.5C 256.743,144.637 254.743,143.804 251.5,146C 252.833,146.667 252.833,147.333 251.5,148C 250.231,147.891 249.231,148.058 248.5,148.5C 247.764,150.229 246.43,151.229 244.5,151.5C 246.469,147.681 249.469,145.014 253.5,143.5 Z"/></g>
<g><path style="opacity:1" fill="#03283f" d="M 288.5,319.5 C 288.414,320.496 288.748,321.329 289.5,322C 284.589,323.492 279.589,323.826 274.5,323C 270.993,320.746 267.327,318.746 263.5,317C 261.045,313.888 259.545,310.388 259,306.5C 257.556,304.845 255.722,304.178 253.5,304.5C 253.522,300.555 252.189,297.222 249.5,294.5C 250.167,293.167 250.833,291.833 251.5,290.5C 249.033,274.891 246.867,259.225 245,243.5C 243.378,249.304 243.211,255.137 244.5,261C 244.693,263.008 244.026,264.508 242.5,265.5C 242.5,252.167 242.5,238.833 242.5,225.5C 244.144,225.286 245.644,225.62 247,226.5C 247.333,231.5 247.667,236.5 248,241.5C 248.667,246.833 249.333,246.833 250,241.5C 250.943,246.809 251.776,252.142 252.5,257.5C 253.086,257.709 253.586,258.043 254,258.5C 254.504,265.874 255.337,273.208 256.5,280.5C 257.251,279.624 257.751,278.624 258,277.5C 259.057,285.464 259.723,293.464 260,301.5C 261.122,303.624 262.622,305.457 264.5,307C 264.043,307.414 263.709,307.914 263.5,308.5C 266.082,311.378 268.748,314.212 271.5,317C 272.449,317.617 273.282,317.451 274,316.5C 278.254,320.228 283.088,321.228 288.5,319.5 Z"/></g>
<g><path style="opacity:1" fill="#13a4a1" d="M 241.5,157.5 C 241.5,158.5 241.5,159.5 241.5,160.5C 241.5,198.167 241.5,235.833 241.5,273.5C 240.848,289.297 241.848,304.963 244.5,320.5C 240.102,312.539 238.435,303.872 239.5,294.5C 239.221,285.532 239.221,276.532 239.5,267.5C 239.437,262.05 238.104,256.717 235.5,251.5C 236.906,248.663 237.739,245.663 238,242.5C 239.489,229.274 239.322,216.108 237.5,203C 239.079,192.556 239.745,182.056 239.5,171.5C 238.897,166.381 239.564,161.715 241.5,157.5 Z"/></g>
<g><path style="opacity:1" fill="#083d4c" d="M 271.5,280.5 C 271.5,283.833 271.5,287.167 271.5,290.5C 274.231,306.524 283.564,313.191 299.5,310.5C 299.179,312.048 298.179,312.715 296.5,312.5C 290.575,312.371 285.075,313.704 280,316.5C 278.544,315.08 277.044,313.747 275.5,312.5C 279.68,308.269 278.68,305.603 272.5,304.5C 273.609,302.786 272.942,302.119 270.5,302.5C 267.042,300.484 266.709,297.984 269.5,295C 268.57,293.605 268.57,292.105 269.5,290.5C 266.059,274.376 264.559,258.043 265,241.5C 264.667,249.5 264.333,257.5 264,265.5C 263.082,257.822 262.082,250.156 261,242.5C 258.979,240.291 257.812,237.624 257.5,234.5C 257.709,233.914 258.043,233.414 258.5,233C 256.81,228.352 255.81,223.519 255.5,218.5C 255.687,213.226 256.187,213.226 257,218.5C 257.664,215.819 256.997,213.485 255,211.5C 252.549,190.758 250.382,169.758 248.5,148.5C 249.231,148.058 250.231,147.891 251.5,148C 252.833,147.333 252.833,146.667 251.5,146C 254.743,143.804 256.743,144.637 257.5,148.5C 256.448,148.351 255.448,148.517 254.5,149C 254.301,157.034 254.634,165.201 255.5,173.5C 257.165,182.926 258.831,192.259 260.5,201.5C 260.291,202.086 259.957,202.586 259.5,203C 261.166,205.48 261.999,208.313 262,211.5C 262.833,212.333 263.667,213.167 264.5,214C 262.205,214.984 262.539,215.817 265.5,216.5C 266.333,232.49 266.833,248.49 267,264.5C 268.061,251.856 268.728,239.19 269,226.5C 270.05,244.642 270.883,262.642 271.5,280.5 Z"/></g>
<g><path style="opacity:1" fill="#022e43" d="M 326.5,280.5 C 327.5,280.5 328.5,280.5 329.5,280.5C 330.724,283.519 332.557,286.519 335,289.5C 335.407,292.682 335.907,295.849 336.5,299C 334.495,304.926 332.329,310.76 330,316.5C 325.861,318.984 322.027,321.817 318.5,325C 310.703,333.828 302.203,341.328 293,347.5C 292.692,346.692 292.192,346.025 291.5,345.5C 290.68,347.319 289.68,348.986 288.5,350.5C 284.298,350.817 280.298,350.483 276.5,349.5C 278.912,349.306 279.912,347.973 279.5,345.5C 281.467,345.261 283.301,345.594 285,346.5C 288.84,343.998 291.674,341.164 293.5,338C 296.767,338.063 298.934,336.563 300,333.5C 300.667,337.5 301.333,337.5 302,333.5C 305.5,331.333 308.333,328.5 310.5,325C 311.449,324.383 312.282,324.549 313,325.5C 316.728,322.348 319.728,318.682 322,314.5C 323.281,314.619 324.448,314.119 325.5,313C 325.043,312.586 324.709,312.086 324.5,311.5C 325.806,310.088 326.64,308.421 327,306.5C 327.333,307.167 327.667,307.833 328,308.5C 329.892,303.097 331.392,297.597 332.5,292C 330.626,288.419 328.626,284.919 326.5,281.5C 325.378,282.63 324.044,283.297 322.5,283.5C 323.262,281.738 324.596,280.738 326.5,280.5 Z"/></g>
<g><path style="opacity:1" fill="#023547" d="M 288.5,350.5 C 289.68,348.986 290.68,347.319 291.5,345.5C 292.192,346.025 292.692,346.692 293,347.5C 302.203,341.328 310.703,333.828 318.5,325C 322.027,321.817 325.861,318.984 330,316.5C 332.329,310.76 334.495,304.926 336.5,299C 335.907,295.849 335.407,292.682 335,289.5C 332.557,286.519 330.724,283.519 329.5,280.5C 331.262,280.643 332.929,280.309 334.5,279.5C 336.323,285.447 338.656,290.447 341.5,294.5C 340.833,295.833 340.167,297.167 339.5,298.5C 341.21,303.391 341.71,308.391 341,313.5C 339.484,310.949 338.651,311.282 338.5,314.5C 337.448,314.351 336.448,314.517 335.5,315C 336.767,316.796 336.767,318.629 335.5,320.5C 334.224,321.645 332.891,321.645 331.5,320.5C 328.506,322.662 326.006,325.328 324,328.5C 323.667,328.167 323.333,327.833 323,327.5C 315.826,334.674 308.66,341.84 301.5,349C 297.23,350.075 292.897,350.575 288.5,350.5 Z"/></g>
<g><path style="opacity:1" fill="#032840" d="M 276.5,349.5 C 273.946,348.612 271.279,348.279 268.5,348.5C 264.946,347.231 261.946,345.231 259.5,342.5C 260.931,342.119 261.764,341.119 262,339.5C 263.02,340.891 263.853,342.391 264.5,344C 266.179,344.395 267.845,344.228 269.5,343.5C 271.405,344.065 273.071,345.065 274.5,346.5C 274.833,346.167 275.167,345.833 275.5,345.5C 274.737,344.281 273.737,343.281 272.5,342.5C 272.709,341.914 273.043,341.414 273.5,341C 277.167,340.667 280.833,340.333 284.5,340C 283.376,339.751 282.376,339.251 281.5,338.5C 294.507,337.512 299.173,330.845 295.5,318.5C 294.452,319.383 293.285,320.05 292,320.5C 290.97,320.164 290.47,319.497 290.5,318.5C 293.856,317.81 295.856,315.81 296.5,312.5C 298.179,312.715 299.179,312.048 299.5,310.5C 300.833,309.833 302.167,309.167 303.5,308.5C 302.594,312.149 301.26,315.649 299.5,319C 300.406,320.699 300.739,322.533 300.5,324.5C 303.903,323.637 307.236,322.47 310.5,321C 311.614,317.385 313.948,314.885 317.5,313.5C 318.386,312.675 318.719,311.675 318.5,310.5C 319.5,310.5 320.5,310.5 321.5,310.5C 321.343,309.127 321.51,307.793 322,306.5C 325.907,302.73 327.407,298.064 326.5,292.5C 327.552,292.649 328.552,292.483 329.5,292C 328.141,289.455 326.641,286.955 325,284.5C 322.966,285.721 321.133,287.055 319.5,288.5C 320.248,286.668 321.248,285.001 322.5,283.5C 324.044,283.297 325.378,282.63 326.5,281.5C 328.626,284.919 330.626,288.419 332.5,292C 331.392,297.597 329.892,303.097 328,308.5C 327.667,307.833 327.333,307.167 327,306.5C 326.64,308.421 325.806,310.088 324.5,311.5C 324.709,312.086 325.043,312.586 325.5,313C 324.448,314.119 323.281,314.619 322,314.5C 319.728,318.682 316.728,322.348 313,325.5C 312.282,324.549 311.449,324.383 310.5,325C 308.333,328.5 305.5,331.333 302,333.5C 301.333,337.5 300.667,337.5 300,333.5C 298.934,336.563 296.767,338.063 293.5,338C 291.674,341.164 288.84,343.998 285,346.5C 283.301,345.594 281.467,345.261 279.5,345.5C 279.912,347.973 278.912,349.306 276.5,349.5 Z"/></g>
<g><path style="opacity:1" fill="#05233c" d="M 303.5,308.5 C 309.943,302.724 315.276,296.057 319.5,288.5C 321.133,287.055 322.966,285.721 325,284.5C 326.641,286.955 328.141,289.455 329.5,292C 328.552,292.483 327.552,292.649 326.5,292.5C 327.407,298.064 325.907,302.73 322,306.5C 321.51,307.793 321.343,309.127 321.5,310.5C 320.5,310.5 319.5,310.5 318.5,310.5C 318.719,311.675 318.386,312.675 317.5,313.5C 313.948,314.885 311.614,317.385 310.5,321C 307.236,322.47 303.903,323.637 300.5,324.5C 300.739,322.533 300.406,320.699 299.5,319C 301.26,315.649 302.594,312.149 303.5,308.5 Z"/></g>
<g><path style="opacity:1" fill="#1da196" d="M 333.5,277.5 C 351.766,276.267 360.432,285.1 359.5,304C 359.469,316.906 356.136,328.739 349.5,339.5C 350.028,338.153 350.195,336.819 350,335.5C 348.951,336.517 347.784,336.684 346.5,336C 348.478,333.503 348.978,330.669 348,327.5C 346.812,328.563 346.312,329.897 346.5,331.5C 345.5,331.5 344.5,331.5 343.5,331.5C 343.622,326.768 343.122,322.102 342,317.5C 341.617,318.056 341.117,318.389 340.5,318.5C 343.291,308.383 344.124,298.05 343,287.5C 342.284,281.673 339.117,278.339 333.5,277.5 Z"/></g>
<g><path style="opacity:1" fill="#0fa599" d="M 239.5,294.5 C 238.435,303.872 240.102,312.539 244.5,320.5C 247.094,329.435 252.094,336.769 259.5,342.5C 261.946,345.231 264.946,347.231 268.5,348.5C 300.182,357.335 324.182,347.335 340.5,318.5C 341.117,318.389 341.617,318.056 342,317.5C 343.122,322.102 343.622,326.768 343.5,331.5C 344.5,331.5 345.5,331.5 346.5,331.5C 346.312,329.897 346.812,328.563 348,327.5C 348.978,330.669 348.478,333.503 346.5,336C 347.784,336.684 348.951,336.517 350,335.5C 350.195,336.819 350.028,338.153 349.5,339.5C 338.755,360.387 321.755,373.221 298.5,378C 287.044,380.887 275.711,381.054 264.5,378.5C 259.563,375.694 254.563,372.861 249.5,370C 234.536,358.925 225.536,344.092 222.5,325.5C 223.973,327.583 225.14,329.916 226,332.5C 226.14,328.105 225.64,323.771 224.5,319.5C 225.5,319.5 226.5,319.5 227.5,319.5C 227.5,318.5 227.5,317.5 227.5,316.5C 228.833,316.5 230.167,316.5 231.5,316.5C 231.832,311.325 231.832,305.992 231.5,300.5C 233.118,296.916 234.118,292.916 234.5,288.5C 235.086,288.709 235.586,289.043 236,289.5C 236.192,296.437 235.359,303.27 233.5,310C 233.63,311.059 234.13,311.892 235,312.5C 237.082,306.572 238.582,300.572 239.5,294.5 Z"/></g>
<g><path style="opacity:1" fill="#03213e" d="M 288.5,319.5 C 289.167,319.167 289.833,318.833 290.5,318.5C 290.47,319.497 290.97,320.164 292,320.5C 293.285,320.05 294.452,319.383 295.5,318.5C 299.173,330.845 294.507,337.512 281.5,338.5C 282.376,339.251 283.376,339.751 284.5,340C 280.833,340.333 277.167,340.667 273.5,341C 273.043,341.414 272.709,341.914 272.5,342.5C 273.737,343.281 274.737,344.281 275.5,345.5C 275.167,345.833 274.833,346.167 274.5,346.5C 273.071,345.065 271.405,344.065 269.5,343.5C 267.845,344.228 266.179,344.395 264.5,344C 263.853,342.391 263.02,340.891 262,339.5C 261.764,341.119 260.931,342.119 259.5,342.5C 252.094,336.769 247.094,329.435 244.5,320.5C 241.848,304.963 240.848,289.297 241.5,273.5C 242.473,271.052 242.806,268.385 242.5,265.5C 244.026,264.508 244.693,263.008 244.5,261C 243.211,255.137 243.378,249.304 245,243.5C 246.867,259.225 249.033,274.891 251.5,290.5C 250.833,291.833 250.167,293.167 249.5,294.5C 252.189,297.222 253.522,300.555 253.5,304.5C 255.722,304.178 257.556,304.845 259,306.5C 259.545,310.388 261.045,313.888 263.5,317C 267.327,318.746 270.993,320.746 274.5,323C 279.589,323.826 284.589,323.492 289.5,322C 288.748,321.329 288.414,320.496 288.5,319.5 Z"/></g>
<g><path style="opacity:1" fill="#023e4a" d="M 333.5,277.5 C 339.117,278.339 342.284,281.673 343,287.5C 344.124,298.05 343.291,308.383 340.5,318.5C 324.182,347.335 300.182,357.335 268.5,348.5C 271.279,348.279 273.946,348.612 276.5,349.5C 280.298,350.483 284.298,350.817 288.5,350.5C 292.897,350.575 297.23,350.075 301.5,349C 308.66,341.84 315.826,334.674 323,327.5C 323.333,327.833 323.667,328.167 324,328.5C 326.006,325.328 328.506,322.662 331.5,320.5C 332.891,321.645 334.224,321.645 335.5,320.5C 336.767,318.629 336.767,316.796 335.5,315C 336.448,314.517 337.448,314.351 338.5,314.5C 338.651,311.282 339.484,310.949 341,313.5C 341.71,308.391 341.21,303.391 339.5,298.5C 340.167,297.167 340.833,295.833 341.5,294.5C 338.656,290.447 336.323,285.447 334.5,279.5C 332.929,280.309 331.262,280.643 329.5,280.5C 328.5,280.5 327.5,280.5 326.5,280.5C 328.32,278.552 330.654,277.552 333.5,277.5 Z"/></g>
</svg>
